<?xml version="1.0" encoding="utf-8"?>
<!-- Generator: Adobe Illustrator 17.0.0, SVG Export Plug-In . SVG Version: 6.00 Build 0)  -->
<!DOCTYPE svg PUBLIC "-//W3C//DTD SVG 1.1//EN" "http://www.w3.org/Graphics/SVG/1.1/DTD/svg11.dtd">
<svg version="1.1" id="Layer_1" xmlns="http://www.w3.org/2000/svg" xmlns:xlink="http://www.w3.org/1999/xlink" x="0px" y="0px"
	 width="228.47px" height="80.773px" viewBox="0 0 228.47 80.773" enable-background="new 0 0 228.47 80.773" xml:space="preserve">
<g>
	<text transform="matrix(1 0 0 1 75.4995 244.3269)" font-family="'HelveticaNeue-Thin'" font-size="36.8011">Viral  </text>
</g>
<g>
	<path fill="#010101" d="M147.842,236.229c-0.223,0-0.419,0.195-0.419,0.419c0,0.782-0.698,1.396-1.535,1.396
		c-0.112,0-0.223,0-0.335-0.028l1.451-5.415c0.279,0.251,0.419,0.586,0.419,0.977c0,0.223,0.195,0.419,0.419,0.419
		c0.223,0,0.419-0.195,0.419-0.419c0-0.782-0.419-1.451-1.033-1.842l0.307-1.089c0.056-0.223-0.084-0.447-0.307-0.502
		c-0.223-0.056-0.447,0.084-0.502,0.307l-0.279,0.949c-0.167-0.028-0.363-0.056-0.558-0.056c-1.312,0-2.372,1.005-2.372,2.233v3.042
		c0,0.782,0.419,1.451,1.033,1.842l-0.279,1.116c-0.056,0.223,0.084,0.447,0.307,0.502c0.028,0,0.084,0.028,0.112,0.028
		c0.195,0,0.363-0.112,0.391-0.307l0.251-0.977c0.167,0.028,0.363,0.056,0.558,0.056c1.312,0,2.372-1.005,2.372-2.233
		C148.26,236.396,148.065,236.229,147.842,236.229z M144.353,236.647v-3.07c0-0.782,0.698-1.396,1.535-1.396
		c0.112,0,0.223,0,0.335,0.028l-1.451,5.415C144.52,237.345,144.353,237.01,144.353,236.647z"/>
	<path fill="#010101" d="M155.964,234.833l-1.368-1.451l0.726-1.87c0.084-0.195-0.028-0.447-0.223-0.53l-1.814-0.809l-0.056-1.982
		c0-0.223-0.195-0.391-0.419-0.419l-1.982-0.056l-0.809-1.814c-0.084-0.195-0.335-0.307-0.53-0.223l-1.87,0.726l-1.451-1.368
		c-0.167-0.167-0.419-0.167-0.586,0l-1.451,1.368l-1.87-0.726c-0.195-0.084-0.447,0.028-0.53,0.223l-0.809,1.814l-1.982,0.056
		c-0.223,0-0.391,0.195-0.419,0.419l-0.056,1.982l-1.814,0.809c-0.195,0.084-0.307,0.335-0.223,0.53l0.726,1.87l-1.34,1.451
		c-0.167,0.167-0.167,0.419,0,0.586l1.368,1.451l-0.726,1.87c-0.084,0.195,0.028,0.447,0.223,0.53l1.814,0.809l0.056,1.982
		c0,0.223,0.195,0.391,0.419,0.419l1.982,0.056l0.809,1.814c0.084,0.195,0.335,0.307,0.53,0.223l1.87-0.726l1.451,1.368
		c0.084,0.084,0.195,0.112,0.279,0.112c0.084,0,0.195-0.028,0.279-0.112l1.451-1.368l1.87,0.726c0.195,0.084,0.391,0,0.502-0.167
		l6.029-9.015C156.103,235.168,156.103,234.973,155.964,234.833z M150.242,242.481l-0.307-0.977l1.089-1.005
		c0.112-0.084,0.167-0.251,0.14-0.391l-0.307-1.842l1.814-0.419c0.14-0.028,0.251-0.14,0.307-0.279l0.502-1.396l1.033-0.084
		L150.242,242.481z M149.461,243.625l-1.786-0.698c-0.14-0.056-0.335-0.028-0.447,0.084l-1.34,1.284l-1.34-1.284
		c-0.084-0.084-0.195-0.112-0.279-0.112c-0.056,0-0.112,0-0.14,0.028l-1.73,0.67l-0.754-1.703c-0.056-0.14-0.223-0.251-0.363-0.251
		l-1.87-0.056l-0.056-1.87c0-0.167-0.112-0.307-0.251-0.363l-1.703-0.754l0.67-1.73c0.056-0.14,0.028-0.335-0.084-0.447
		l-1.284-1.312l1.284-1.34c0.112-0.112,0.14-0.279,0.084-0.447l-0.67-1.73l1.703-0.754c0.14-0.056,0.251-0.223,0.251-0.363
		l0.056-1.87l1.87-0.056c0.167,0,0.307-0.112,0.363-0.251l0.754-1.703l1.73,0.67c0.14,0.056,0.335,0.028,0.447-0.084l1.34-1.284
		l1.34,1.284c0.112,0.112,0.279,0.14,0.447,0.084l1.73-0.67l0.754,1.703c0.056,0.14,0.223,0.251,0.363,0.251l1.87,0.056l0.056,1.87
		c0,0.167,0.112,0.307,0.251,0.363l1.703,0.754l-0.726,1.73c-0.056,0.14-0.028,0.335,0.084,0.447l1.312,1.396l-0.028,0.056
		l-1.954,0.167c-0.167,0.028-0.307,0.112-0.363,0.279l-0.53,1.451l-1.982,0.447c-0.223,0.056-0.363,0.251-0.307,0.474l0.335,2.01
		l-1.116,1.033c-0.112,0.112-0.167,0.279-0.112,0.447l0.614,1.87L149.461,243.625z"/>
</g>
<text transform="matrix(1 0 0 1 157.0774 244.3269)" font-family="'HelveticaNeue-Thin'" font-size="36.8011">ents</text>
<g>
	<text transform="matrix(1 0 0 1 34.7108 52.5348)" font-family="'HelveticaNeue-Thin'" font-size="36.8011">Viral  </text>
</g>
<g>
	<path fill="#010101" d="M107.053,44.436c-0.223,0-0.419,0.195-0.419,0.419c0,0.782-0.698,1.396-1.535,1.396
		c-0.112,0-0.223,0-0.335-0.028l1.451-5.415c0.279,0.251,0.419,0.586,0.419,0.977c0,0.223,0.195,0.419,0.419,0.419
		s0.419-0.195,0.419-0.419c0-0.782-0.419-1.451-1.033-1.842l0.307-1.089c0.056-0.223-0.084-0.447-0.307-0.502
		c-0.223-0.056-0.447,0.084-0.502,0.307l-0.279,0.949c-0.167-0.028-0.363-0.056-0.558-0.056c-1.312,0-2.372,1.005-2.372,2.233v3.042
		c0,0.782,0.419,1.451,1.033,1.842l-0.279,1.116c-0.056,0.223,0.084,0.447,0.307,0.502c0.028,0,0.084,0.028,0.112,0.028
		c0.195,0,0.363-0.112,0.391-0.307l0.251-0.977c0.167,0.028,0.363,0.056,0.558,0.056c1.312,0,2.372-1.005,2.372-2.233
		C107.472,44.604,107.276,44.436,107.053,44.436z M103.564,44.855v-3.07c0-0.782,0.698-1.396,1.535-1.396
		c0.112,0,0.223,0,0.335,0.028l-1.451,5.415C103.732,45.553,103.564,45.218,103.564,44.855z"/>
	<path fill="#010101" d="M115.175,43.041l-1.368-1.451l0.726-1.87c0.084-0.195-0.028-0.447-0.223-0.53l-1.814-0.809l-0.056-1.982
		c0-0.223-0.195-0.391-0.419-0.419l-1.982-0.056l-0.809-1.814c-0.084-0.195-0.335-0.307-0.53-0.223l-1.87,0.726l-1.451-1.368
		c-0.167-0.167-0.419-0.167-0.586,0l-1.451,1.368l-1.87-0.726c-0.195-0.084-0.447,0.028-0.53,0.223l-0.809,1.814l-1.982,0.056
		c-0.223,0-0.391,0.195-0.419,0.419l-0.056,1.982l-1.814,0.809c-0.195,0.084-0.307,0.335-0.223,0.53l0.726,1.87l-1.34,1.451
		c-0.167,0.167-0.167,0.419,0,0.586l1.368,1.451l-0.726,1.87c-0.084,0.195,0.028,0.447,0.223,0.53l1.814,0.809l0.056,1.982
		c0,0.223,0.195,0.391,0.419,0.419l1.982,0.056l0.809,1.814c0.084,0.195,0.335,0.307,0.53,0.223l1.87-0.726l1.451,1.368
		c0.084,0.084,0.195,0.112,0.279,0.112s0.195-0.028,0.279-0.112l1.451-1.368l1.87,0.726c0.195,0.084,0.391,0,0.502-0.167
		l6.029-9.015C115.315,43.376,115.315,43.18,115.175,43.041z M109.453,50.688l-0.307-0.977l1.089-1.005
		c0.112-0.084,0.167-0.251,0.14-0.391l-0.307-1.842l1.814-0.419c0.14-0.028,0.251-0.14,0.307-0.279l0.502-1.396l1.033-0.084
		L109.453,50.688z M108.672,51.833l-1.786-0.698c-0.14-0.056-0.335-0.028-0.447,0.084l-1.34,1.284l-1.34-1.284
		c-0.084-0.084-0.195-0.112-0.279-0.112c-0.056,0-0.112,0-0.14,0.028l-1.73,0.67l-0.754-1.703c-0.056-0.14-0.223-0.251-0.363-0.251
		l-1.87-0.056l-0.056-1.87c0-0.167-0.112-0.307-0.251-0.363l-1.703-0.754l0.67-1.73c0.056-0.14,0.028-0.335-0.084-0.447
		l-1.284-1.312l1.284-1.34c0.112-0.112,0.14-0.279,0.084-0.447l-0.67-1.73l1.703-0.754c0.14-0.056,0.251-0.223,0.251-0.363
		l0.056-1.87l1.87-0.056c0.167,0,0.307-0.112,0.363-0.251l0.754-1.703l1.73,0.67c0.14,0.056,0.335,0.028,0.447-0.084l1.34-1.284
		l1.34,1.284c0.112,0.112,0.279,0.14,0.447,0.084l1.73-0.67l0.754,1.703c0.056,0.14,0.223,0.251,0.363,0.251l1.87,0.056l0.056,1.87
		c0,0.167,0.112,0.307,0.251,0.363l1.703,0.754l-0.726,1.73c-0.056,0.14-0.028,0.335,0.084,0.447l1.312,1.396l-0.028,0.056
		l-1.954,0.167c-0.167,0.028-0.307,0.112-0.363,0.279l-0.53,1.451l-1.982,0.447c-0.223,0.056-0.363,0.251-0.307,0.474l0.335,2.01
		l-1.116,1.033c-0.112,0.112-0.167,0.279-0.112,0.447l0.614,1.87L108.672,51.833z"/>
</g>
<text transform="matrix(1 0 0 1 116.2886 52.5348)" font-family="'HelveticaNeue-Thin'" font-size="36.8011">ents</text>
</svg>
