<?xml version="1.0" encoding="utf-8"?>
<!-- Generator: Adobe Illustrator 17.0.0, SVG Export Plug-In . SVG Version: 6.00 Build 0)  -->
<!DOCTYPE svg PUBLIC "-//W3C//DTD SVG 1.1//EN" "http://www.w3.org/Graphics/SVG/1.1/DTD/svg11.dtd">
<svg version="1.1" id="Layer_1" xmlns="http://www.w3.org/2000/svg" xmlns:xlink="http://www.w3.org/1999/xlink" x="0px" y="0px"
	 width="228.47px" height="80.773px" viewBox="0 0 228.47 80.773" enable-background="new 0 0 228.47 80.773" xml:space="preserve">
<text transform="matrix(1 0 0 1 30.1693 49.7174)" font-family="'HelveticaNeue-Light'" font-size="36.8011">Viral</text>
<text transform="matrix(1 0 0 1 120.83 49.7174)" font-family="'HelveticaNeue-Light'" font-size="36.8011">ents</text>
<path fill="#010101" d="M108.175,29.054c-6.259,0-11.332,5.074-11.332,11.332s5.074,11.332,11.332,11.332
	c6.259,0,11.332-5.074,11.332-11.332S114.434,29.054,108.175,29.054z M108.175,30.313c5.563,0,10.073,4.51,10.073,10.073
	s-4.51,10.073-10.073,10.073c-5.563,0-10.073-4.51-10.073-10.073S102.612,30.313,108.175,30.313z M108.175,30.722
	c-5.336,0-9.664,4.328-9.664,9.664s4.328,9.664,9.664,9.664c5.336,0,9.664-4.328,9.664-9.664S113.511,30.722,108.175,30.722z
	 M108.175,30.911c5.234,0,9.475,4.241,9.475,9.475s-4.241,9.475-9.475,9.475c-5.234,0-9.475-4.241-9.475-9.475
	S102.941,30.911,108.175,30.911z M109.898,31.848l-1.015,3.47c-0.382-0.048-0.682-0.071-0.897-0.071
	c-0.723,0-1.429,0.192-2.125,0.574c-0.696,0.382-1.217,0.954-1.566,1.716c-0.35,0.762-0.527,1.675-0.527,2.738
	c0,1.153,0.217,2.113,0.653,2.88c0.436,0.768,0.997,1.316,1.684,1.645l-1.031,3.565l1.007,0.283l1.054-3.541
	c0.323,0.084,0.636,0.126,0.928,0.126c1.004,0,1.867-0.311,2.605-0.944c0.738-0.633,1.212-1.508,1.409-2.613l-1.605-0.173
	c-0.101,0.765-0.383,1.354-0.834,1.778c-0.451,0.424-0.984,0.637-1.605,0.637c-0.167,0-0.346-0.025-0.543-0.079l1.983-6.862
	c0.418,0.352,0.71,0.858,0.866,1.527l1.566-0.236c-0.125-0.651-0.344-1.196-0.661-1.629c-0.317-0.433-0.77-0.782-1.362-1.039
	l1-3.463L109.898,31.848L109.898,31.848z M108.08,36.538c0.108,0,0.257,0.006,0.449,0.023L106.53,43.4
	c-0.353-0.263-0.627-0.668-0.818-1.212c-0.191-0.543-0.283-1.21-0.283-1.999c0-0.753,0.103-1.413,0.315-1.983
	c0.212-0.57,0.533-0.987,0.96-1.259C107.13,36.676,107.591,36.538,108.08,36.538z"/>
</svg>
