<?xml version="1.0" encoding="utf-8"?>
<!-- Generator: Adobe Illustrator 17.0.0, SVG Export Plug-In . SVG Version: 6.00 Build 0)  -->
<!DOCTYPE svg PUBLIC "-//W3C//DTD SVG 1.1//EN" "http://www.w3.org/Graphics/SVG/1.1/DTD/svg11.dtd">
<svg version="1.1" id="Layer_1" xmlns="http://www.w3.org/2000/svg" xmlns:xlink="http://www.w3.org/1999/xlink" x="0px" y="0px"
	 width="228.47px" height="80.773px" viewBox="0 0 228.47 80.773" enable-background="new 0 0 228.47 80.773" xml:space="preserve">
<text transform="matrix(1 0 0 1 22.328 57.6425)" font-family="'HelveticaNeue-Bold'" font-size="36.8011">Viral</text>
<text transform="matrix(1 0 0 1 124.827 57.1253)" font-family="'HelveticaNeue-Bold'" font-size="36.8011">ents</text>
<path fill="#010101" d="M110.141,36.898c-5.138,0-9.302,4.164-9.302,9.302c0,2.71,1.179,5.123,3.03,6.823
	c1.613,2.763,4.605,4.62,8.035,4.62c0.915,0,1.801-0.131,2.636-0.378c3.011-0.109,5.904-1.652,7.594-4.415
	c2.681-4.382,1.305-10.107-3.077-12.788c-1.073-0.657-2.226-1.065-3.392-1.243C114.119,37.643,112.238,36.898,110.141,36.898
	L110.141,36.898z M110.141,37.929c1.252,0,2.428,0.299,3.486,0.803c-0.233,0.016-0.469,0.038-0.7,0.071
	c-0.867-0.339-1.799-0.543-2.786-0.543c-4.38,0-7.933,3.56-7.933,7.94c0,0.805,0.154,1.558,0.378,2.29
	c-0.004-0.077-0.024-0.151-0.024-0.228c0-0.096,0.028-0.181,0.031-0.276c-0.137-0.578-0.228-1.166-0.228-1.786
	c0-4.296,3.479-7.791,7.775-7.791c0.889,0,1.74,0.162,2.534,0.441c-0.296,0.051-0.591,0.111-0.881,0.189
	c-5.087,0.059-9.192,4.201-9.192,9.302c0,0.468,0.036,0.928,0.102,1.377c-0.51-1.072-0.834-2.251-0.834-3.518
	C101.87,41.633,105.575,37.929,110.141,37.929L110.141,37.929z M115.91,39.943c0.898,0.177,1.778,0.494,2.605,1
	c3.895,2.383,5.122,7.476,2.738,11.372c-0.783,1.281-1.863,2.247-3.093,2.912c0.363-0.33,0.693-0.688,1-1.07
	c0.7-0.549,1.319-1.212,1.81-2.015c2.286-3.736,1.116-8.621-2.621-10.907c-0.389-0.238-0.795-0.427-1.204-0.582
	C116.753,40.384,116.342,40.15,115.91,39.943L115.91,39.943z M111.904,40.077c4.566,0,8.271,3.696,8.271,8.263
	s-3.704,8.271-8.271,8.271c-4.567,0-8.271-3.704-8.271-8.271S107.338,40.077,111.904,40.077L111.904,40.077z M111.904,40.408
	c-4.38,0-7.933,3.553-7.933,7.933c0,4.38,3.552,7.933,7.933,7.933c4.38,0,7.933-3.552,7.933-7.933
	C119.837,43.96,116.284,40.408,111.904,40.408z M111.904,40.565c4.296,0,7.775,3.479,7.775,7.775s-3.479,7.783-7.775,7.783
	c-4.296,0-7.775-3.487-7.775-7.783S107.608,40.565,111.904,40.565z M117.704,41.069c0.187,0.092,0.375,0.195,0.559,0.307
	c3.665,2.242,4.823,7.022,2.581,10.687c-0.369,0.603-0.806,1.132-1.299,1.59c1.048-1.505,1.661-3.339,1.661-5.312
	C121.206,45.396,119.839,42.773,117.704,41.069L117.704,41.069z M113.321,41.336l-0.834,2.849c-0.314-0.039-0.555-0.063-0.732-0.063
	c-0.593,0-1.176,0.158-1.747,0.472c-0.571,0.314-1.004,0.783-1.291,1.409c-0.287,0.625-0.425,1.378-0.425,2.251
	c0,0.946,0.177,1.731,0.535,2.361c0.358,0.63,0.813,1.084,1.377,1.354l-0.842,2.928l0.826,0.228l0.866-2.904
	c0.265,0.069,0.515,0.102,0.755,0.102c0.824,0,1.543-0.259,2.149-0.779c0.605-0.52,0.987-1.233,1.149-2.141l-1.314-0.142
	c-0.084,0.628-0.315,1.116-0.685,1.464c-0.37,0.348-0.812,0.519-1.322,0.519c-0.137,0-0.287-0.019-0.449-0.063l1.637-5.635
	c0.343,0.289,0.581,0.71,0.708,1.259l1.283-0.204c-0.103-0.534-0.283-0.975-0.543-1.33c-0.26-0.355-0.632-0.639-1.118-0.85
	l0.826-2.849L113.321,41.336L113.321,41.336z M111.825,45.185c0.088,0,0.213,0.009,0.37,0.023l-1.645,5.611
	c-0.289-0.216-0.512-0.545-0.669-0.992c-0.157-0.446-0.236-0.997-0.236-1.645c0-0.618,0.093-1.161,0.267-1.629
	c0.174-0.468,0.436-0.816,0.787-1.039C111.051,45.292,111.423,45.185,111.825,45.185L111.825,45.185z M102.76,50.025
	c0.012,0.064,0.018,0.132,0.031,0.197c-0.006-0.029-0.018-0.057-0.024-0.087C102.76,50.098,102.762,50.062,102.76,50.025
	L102.76,50.025z"/>
</svg>
