<?xml version="1.0" encoding="utf-8"?>
<!-- Generator: Adobe Illustrator 17.0.0, SVG Export Plug-In . SVG Version: 6.00 Build 0)  -->
<!DOCTYPE svg PUBLIC "-//W3C//DTD SVG 1.1//EN" "http://www.w3.org/Graphics/SVG/1.1/DTD/svg11.dtd">
<svg version="1.1" id="Layer_1" xmlns="http://www.w3.org/2000/svg" xmlns:xlink="http://www.w3.org/1999/xlink" x="0px" y="0px"
	 width="228.47px" height="80.773px" viewBox="0 0 228.47 80.773" enable-background="new 0 0 228.47 80.773" xml:space="preserve">
<text transform="matrix(1 0 0 1 37.6835 49.7458)" fill="#231F20" font-family="'HelveticaNeue-UltraLight'" font-size="36.8011">Viral  </text>
<text transform="matrix(1 0 0 1 115.8876 49.6855)" fill="#231F20" font-family="'HelveticaNeue-UltraLight'" font-size="36.8011">ents</text>
<g>
	<path d="M104.83,49.833c-5.361,0-9.722-4.361-9.722-9.722s4.361-9.722,9.722-9.722s9.722,4.361,9.722,9.722
		S110.191,49.833,104.83,49.833z M104.83,30.613c-5.238,0-9.498,4.261-9.498,9.498s4.261,9.498,9.498,9.498s9.498-4.261,9.498-9.498
		S110.068,30.613,104.83,30.613z"/>
	<path d="M104.83,48.487c-4.618,0-8.375-3.757-8.375-8.375c0-4.618,3.757-8.375,8.375-8.375c4.618,0,8.375,3.757,8.375,8.375
		S109.448,48.487,104.83,48.487z M104.83,31.948c-4.501,0-8.163,3.662-8.163,8.163c0,4.501,3.662,8.163,8.163,8.163
		c4.501,0,8.163-3.662,8.163-8.163S109.331,31.948,104.83,31.948z"/>
	<polygon points="104.83,31.302 104.652,31.395 104.686,31.197 104.542,31.057 104.741,31.028 104.83,30.847 104.919,31.028 
		105.118,31.057 104.974,31.197 105.008,31.395 	"/>
	<polygon points="110.493,33.363 110.296,33.32 110.45,33.19 110.43,32.99 110.601,33.096 110.785,33.015 110.737,33.21 
		110.871,33.36 110.671,33.375 110.569,33.549 	"/>
	<polygon points="113.506,38.581 113.383,38.422 113.584,38.421 113.697,38.255 113.76,38.446 113.953,38.502 113.791,38.621 
		113.797,38.822 113.635,38.705 113.445,38.773 	"/>
	<polygon points="112.46,44.516 112.468,44.315 112.623,44.444 112.816,44.389 112.741,44.576 112.853,44.743 112.653,44.73 
		112.528,44.888 112.479,44.693 112.29,44.623 	"/>
	<polygon points="107.843,48.39 107.979,48.241 108.015,48.439 108.199,48.521 108.021,48.617 107.999,48.817 107.854,48.677 
		107.657,48.719 107.744,48.538 107.645,48.363 	"/>
	<polygon points="101.817,48.39 102.017,48.363 101.917,48.538 102.005,48.719 101.807,48.678 101.662,48.817 101.641,48.617 
		101.463,48.522 101.646,48.44 101.682,48.241 	"/>
	<polygon points="97.201,44.516 97.371,44.624 97.182,44.694 97.133,44.889 97.008,44.731 96.807,44.744 96.919,44.577 
		96.845,44.39 97.038,44.445 97.193,44.316 	"/>
	<polygon points="96.155,38.582 96.215,38.774 96.026,38.705 95.863,38.824 95.869,38.622 95.707,38.503 95.9,38.447 95.963,38.256 
		96.076,38.422 96.277,38.423 	"/>
	<polygon points="99.168,33.363 99.091,33.549 98.989,33.375 98.789,33.361 98.923,33.21 98.875,33.015 99.059,33.096 99.23,32.99 
		99.21,33.19 99.364,33.32 	"/>
	<polygon points="107.648,31.78 107.449,31.81 107.546,31.634 107.457,31.454 107.654,31.493 107.798,31.352 107.822,31.551 
		108.001,31.644 107.818,31.729 107.785,31.927 	"/>
	<polygon points="112.312,35.596 112.141,35.491 112.328,35.419 112.375,35.223 112.502,35.38 112.702,35.364 112.593,35.533 
		112.67,35.718 112.476,35.667 112.322,35.797 	"/>
	<polygon points="113.432,41.517 113.369,41.327 113.559,41.392 113.721,41.272 113.717,41.474 113.88,41.591 113.688,41.649 
		113.627,41.841 113.513,41.676 113.311,41.678 	"/>
	<polygon points="110.484,46.774 110.558,46.586 110.662,46.759 110.863,46.771 110.73,46.923 110.781,47.118 110.596,47.039 
		110.426,47.147 110.444,46.947 110.289,46.818 	"/>
	<polygon points="104.848,48.905 105.025,48.809 104.993,49.008 105.139,49.146 104.94,49.177 104.853,49.359 104.763,49.18 
		104.563,49.154 104.705,49.012 104.669,48.814 	"/>
	<polygon points="99.16,46.914 99.357,46.955 99.205,47.087 99.228,47.287 99.055,47.183 98.872,47.266 98.918,47.071 
		98.782,46.922 98.982,46.905 99.081,46.73 	"/>
	<polygon points="96.082,41.733 96.207,41.891 96.005,41.895 95.895,42.063 95.829,41.872 95.635,41.818 95.796,41.698 
		95.788,41.496 95.952,41.612 96.141,41.542 	"/>
	<polygon points="97.054,35.786 97.049,35.987 96.892,35.861 96.699,35.918 96.772,35.73 96.658,35.564 96.859,35.575 
		96.981,35.415 97.033,35.609 97.223,35.677 	"/>
	<polygon points="101.622,31.856 101.489,32.006 101.45,31.808 101.265,31.728 101.442,31.631 101.461,31.431 101.608,31.568 
		101.805,31.525 101.719,31.706 101.821,31.88 	"/>
	<g>
		<path d="M105.143,43.848c0.357,0,0.685-0.06,0.984-0.181c0.299-0.12,0.562-0.289,0.788-0.506c0.226-0.217,0.412-0.472,0.557-0.767
			c0.145-0.294,0.236-0.615,0.275-0.962h0.289c-0.106,0.849-0.427,1.507-0.962,1.974c-0.535,0.468-1.203,0.706-2.003,0.716v1.577
			h-0.289v-1.577c-0.521-0.019-0.974-0.14-1.36-0.362c-0.386-0.222-0.706-0.511-0.962-0.868c-0.256-0.357-0.446-0.764-0.571-1.222
			c-0.125-0.458-0.187-0.938-0.187-1.439c0-0.482,0.065-0.95,0.195-1.403c0.13-0.453,0.323-0.858,0.578-1.215
			c0.256-0.357,0.576-0.648,0.962-0.875c0.386-0.226,0.834-0.349,1.345-0.369v-1.273h0.289v1.273
			c0.376,0.01,0.731,0.067,1.063,0.174s0.627,0.26,0.882,0.463c0.255,0.202,0.465,0.451,0.629,0.745
			c0.164,0.294,0.27,0.639,0.318,1.034h-0.289c-0.058-0.347-0.162-0.653-0.311-0.918c-0.15-0.265-0.338-0.485-0.564-0.658
			c-0.227-0.173-0.487-0.306-0.781-0.398c-0.294-0.092-0.61-0.142-0.947-0.152v7.189L105.143,43.848L105.143,43.848z
			 M103.545,37.006c-0.352,0.212-0.644,0.485-0.875,0.817s-0.403,0.709-0.514,1.128c-0.111,0.419-0.166,0.846-0.166,1.28
			c0,0.444,0.055,0.878,0.166,1.302c0.111,0.424,0.282,0.805,0.514,1.143c0.231,0.338,0.523,0.612,0.875,0.824
			c0.352,0.212,0.764,0.328,1.237,0.347v-7.188C104.309,36.678,103.897,36.794,103.545,37.006z"/>
	</g>
</g>
</svg>
