<?xml version="1.0" encoding="UTF-8" standalone="no"?>
<!-- Generator: Adobe Illustrator 17.0.0, SVG Export Plug-In . SVG Version: 6.00 Build 0)  -->

<svg
   xmlns:dc="http://purl.org/dc/elements/1.1/"
   xmlns:cc="http://creativecommons.org/ns#"
   xmlns:rdf="http://www.w3.org/1999/02/22-rdf-syntax-ns#"
   xmlns:svg="http://www.w3.org/2000/svg"
   xmlns="http://www.w3.org/2000/svg"
   xmlns:xlink="http://www.w3.org/1999/xlink"
   xmlns:sodipodi="http://sodipodi.sourceforge.net/DTD/sodipodi-0.dtd"
   xmlns:inkscape="http://www.inkscape.org/namespaces/inkscape"
   version="1.1"
   id="Layer_1"
   x="0px"
   y="0px"
   width="209.143px"
   height="65.143px"
   viewBox="0 0 209.143 65.143"
   enable-background="new 0 0 209.143 65.143"
   xml:space="preserve"
   inkscape:version="0.48.4 r9939"
   sodipodi:docname="5.svg"><metadata
     id="metadata29"><rdf:RDF><cc:Work
         rdf:about=""><dc:format>image/svg+xml</dc:format><dc:type
           rdf:resource="http://purl.org/dc/dcmitype/StillImage" /></cc:Work></rdf:RDF></metadata><defs
     id="defs27" /><sodipodi:namedview
     pagecolor="#ffffff"
     bordercolor="#666666"
     borderopacity="1"
     objecttolerance="10"
     gridtolerance="10"
     guidetolerance="10"
     inkscape:pageopacity="0"
     inkscape:pageshadow="2"
     inkscape:window-width="1366"
     inkscape:window-height="720"
     id="namedview25"
     showgrid="false"
     inkscape:zoom="3.0218558"
     inkscape:cx="125.37359"
     inkscape:cy="30.800866"
     inkscape:window-x="0"
     inkscape:window-y="0"
     inkscape:window-maximized="1"
     inkscape:current-layer="Layer_1" /><text
     transform="matrix(1 0 0 1 24.2328 46.071)"
     font-family="'HelveticaNeue-Bold'"
     font-size="36.8011"
     id="text3"
     style="fill:#cccccc">Viral</text>
<g
     id="g5"
     transform="translate(1.9855349,-0.66184498)"
     style="fill:#cccccc"><path
       d="m 123.928,31.729 -4.039,-4.709 -5.918,-1.756 -5.918,1.756 -4.039,4.709 -0.878,6.168 2.562,5.668 5.189,3.369 h 6.168 l 5.189,-3.369 2.562,-5.668 -0.878,-6.168 z m -10.012,14.446 c -5.437,0 -9.859,-4.423 -9.859,-9.859 0,-5.436 4.423,-9.859 9.859,-9.859 5.437,0 9.859,4.423 9.859,9.859 10e-4,5.436 -4.422,9.859 -9.859,9.859 z"
       id="path7"
       inkscape:connector-curvature="0"
       style="fill:#cccccc" /><g
       id="g9"
       style="fill:#cccccc"><defs
         id="defs11"><circle
           id="SVGID_1_"
           cx="113.972"
           cy="36.316002"
           r="9.3470001"
           sodipodi:cx="113.972"
           sodipodi:cy="36.316002"
           sodipodi:rx="9.3470001"
           sodipodi:ry="9.3470001" /></defs><clipPath
         id="SVGID_2_"><use
           xlink:href="#SVGID_1_"
           overflow="visible"
           id="use15"
           style="overflow:visible"
           x="0"
           y="0"
           width="209.14301"
           height="65.142998" /></clipPath><g
         clip-path="url(#SVGID_2_)"
         id="g17"
         style="fill:#cccccc"><path
           d="m 113.916,21.508 c -8.165,0 -14.808,6.642 -14.808,14.808 0,8.165 6.642,14.808 14.808,14.808 8.165,0 14.808,-6.643 14.808,-14.808 0,-8.165 -6.643,-14.808 -14.808,-14.808 z m 0.751,19.84 v 1.956 h -0.998 v -1.956 c -2.662,-0.202 -4.175,-1.856 -4.175,-5.045 0,-3.047 1.513,-4.823 4.175,-5.086 V 29.66 h 0.998 v 1.536 c 1.664,0.081 2.955,0.888 3.634,2.503 l -2.087,1.089 c -0.28,-0.848 -0.882,-1.473 -1.547,-1.634 v 6.236 c 0.666,-0.101 1.316,-0.565 1.716,-1.433 l 1.929,1.231 c -0.8,1.413 -1.981,2.059 -3.645,2.16 z"
           id="path19"
           inkscape:connector-curvature="0"
           style="fill:#cccccc" /><path
           d="m 111.93,36.242 c 0,1.736 0.74,2.846 1.738,3.108 v -6.175 c -0.998,0.262 -1.738,1.291 -1.738,3.067 z"
           id="path21"
           inkscape:connector-curvature="0"
           style="fill:#cccccc" /></g></g></g><text
     transform="matrix(1 0 0 1 126.7317 45.5539)"
     font-family="'HelveticaNeue-Bold'"
     font-size="36.8011"
     id="text23"
     style="fill:#cccccc">ent</text>
</svg>