<?xml version="1.0" encoding="utf-8"?>
<!-- Generator: Adobe Illustrator 17.0.0, SVG Export Plug-In . SVG Version: 6.00 Build 0)  -->
<!DOCTYPE svg PUBLIC "-//W3C//DTD SVG 1.1//EN" "http://www.w3.org/Graphics/SVG/1.1/DTD/svg11.dtd">
<svg version="1.1" id="Layer_1" xmlns="http://www.w3.org/2000/svg" xmlns:xlink="http://www.w3.org/1999/xlink" x="0px" y="0px"
	 width="209.143px" height="65.143px" viewBox="0 0 209.143 65.143" enable-background="new 0 0 209.143 65.143"
	 xml:space="preserve">
<text transform="matrix(1 0 0 1 24.2328 46.071)" font-family="'HelveticaNeue-Bold'" font-size="36.8011">Viral</text>
<g>
	<path fill="#010101" d="M123.928,31.729l-4.039-4.709l-5.918-1.756l-5.918,1.756l-4.039,4.709l-0.878,6.168l2.562,5.668
		l5.189,3.369h6.168l5.189-3.369l2.562-5.668L123.928,31.729z M113.916,46.175c-5.437,0-9.859-4.423-9.859-9.859
		s4.423-9.859,9.859-9.859c5.437,0,9.859,4.423,9.859,9.859C123.776,41.752,119.353,46.175,113.916,46.175z"/>
	<g>
		<defs>
			<circle id="SVGID_1_" cx="113.972" cy="36.316" r="9.347"/>
		</defs>
		<clipPath id="SVGID_2_">
			<use xlink:href="#SVGID_1_"  overflow="visible"/>
		</clipPath>
		<g clip-path="url(#SVGID_2_)">
			<path fill="#010101" d="M113.916,21.508c-8.165,0-14.808,6.642-14.808,14.808c0,8.165,6.642,14.808,14.808,14.808
				c8.165,0,14.808-6.643,14.808-14.808C128.724,28.151,122.081,21.508,113.916,21.508z M114.667,41.348v1.956h-0.998v-1.956
				c-2.662-0.202-4.175-1.856-4.175-5.045c0-3.047,1.513-4.823,4.175-5.086v-1.557h0.998v1.536c1.664,0.081,2.955,0.888,3.634,2.503
				l-2.087,1.089c-0.28-0.848-0.882-1.473-1.547-1.634v6.236c0.666-0.101,1.316-0.565,1.716-1.433l1.929,1.231
				C117.512,40.601,116.331,41.247,114.667,41.348z"/>
			<path fill="#010101" d="M111.93,36.242c0,1.736,0.74,2.846,1.738,3.108v-6.175C112.67,33.437,111.93,34.466,111.93,36.242z"/>
		</g>
	</g>
</g>
<text transform="matrix(1 0 0 1 126.7317 45.5539)" font-family="'HelveticaNeue-Bold'" font-size="36.8011">ent</text>
</svg>
