<?xml version="1.0" encoding="utf-8"?>
<!-- Generator: Adobe Illustrator 17.0.0, SVG Export Plug-In . SVG Version: 6.00 Build 0)  -->
<!DOCTYPE svg PUBLIC "-//W3C//DTD SVG 1.1//EN" "http://www.w3.org/Graphics/SVG/1.1/DTD/svg11.dtd">
<svg version="1.1" id="Layer_1" xmlns="http://www.w3.org/2000/svg" xmlns:xlink="http://www.w3.org/1999/xlink" x="0px" y="0px"
	 width="228.47px" height="80.773px" viewBox="0 0 228.47 80.773" enable-background="new 0 0 228.47 80.773" xml:space="preserve">
<text transform="matrix(1 0 0 1 36.071 51.113)" fill="#231F20" font-family="'HelveticaNeue-Light'" font-size="36.8011">Viral</text>
<g>
	<g>
		<path fill="#1D1C1A" d="M114.93,30.018c-6.166,0-11.183,5.017-11.183,11.183s5.017,11.183,11.183,11.183
			c6.166,0,11.183-5.017,11.183-11.183S121.096,30.018,114.93,30.018z M114.93,51.394c-5.621,0-10.193-4.573-10.193-10.193
			s4.573-10.193,10.193-10.193c5.621,0,10.193,4.573,10.193,10.193S120.55,51.394,114.93,51.394z"/>
		<path fill="#1D1C1A" d="M118.723,38.961c0.07,0.264,0.342,0.424,0.605,0.353c0.264-0.07,0.422-0.341,0.353-0.605
			c-0.217-0.823-0.638-1.532-1.191-2.096l1.038-1.581c0.15-0.228,0.086-0.535-0.142-0.685c-0.228-0.15-0.535-0.086-0.685,0.142
			l-0.979,1.492c-1.044-0.686-2.358-0.958-3.683-0.647c-1.231,0.288-2.329,1.087-3.012,2.191c-0.994,1.606-1.016,4.066-0.616,5.673
			c0.204,0.82,0.609,1.561,1.153,2.166l-1.317,2.007c-0.15,0.228-0.086,0.535,0.142,0.685c0.084,0.055,0.178,0.081,0.271,0.081
			c0.161,0,0.319-0.078,0.414-0.223l1.23-1.875c0.516,0.383,1.104,0.665,1.735,0.813c0.371,0.087,0.74,0.129,1.104,0.128
			c2.098,0,3.981-1.389,4.539-3.503c0.07-0.264-0.088-0.535-0.353-0.605c-0.263-0.07-0.535,0.089-0.605,0.353
			c-0.516,1.958-2.476,3.127-4.46,2.664c-0.517-0.121-0.998-0.356-1.418-0.677l5.085-7.747
			C118.294,37.882,118.572,38.386,118.723,38.961z M112.129,44.5c-0.351-0.447-0.617-0.969-0.759-1.541
			c-0.362-1.457-0.308-3.612,0.498-4.914c0.546-0.882,1.419-1.519,2.396-1.748c1.05-0.245,2.089-0.03,2.914,0.512L112.129,44.5z"/>
	</g>
</g>
<text transform="matrix(1 0 0 1 127.7323 51.113)" fill="#231F20" font-family="'HelveticaNeue-Light'" font-size="36.8011">ent</text>
</svg>
