<?xml version="1.0" encoding="UTF-8" standalone="no"?>
<!-- Generator: Adobe Illustrator 17.0.0, SVG Export Plug-In . SVG Version: 6.00 Build 0)  -->

<svg
   xmlns:dc="http://purl.org/dc/elements/1.1/"
   xmlns:cc="http://creativecommons.org/ns#"
   xmlns:rdf="http://www.w3.org/1999/02/22-rdf-syntax-ns#"
   xmlns:svg="http://www.w3.org/2000/svg"
   xmlns="http://www.w3.org/2000/svg"
   xmlns:sodipodi="http://sodipodi.sourceforge.net/DTD/sodipodi-0.dtd"
   xmlns:inkscape="http://www.inkscape.org/namespaces/inkscape"
   version="1.1"
   id="Layer_1"
   x="0px"
   y="0px"
   width="228.47px"
   height="80.773px"
   viewBox="0 0 228.47 80.773"
   enable-background="new 0 0 228.47 80.773"
   xml:space="preserve"
   inkscape:version="0.48.4 r9939"
   sodipodi:docname="7.svg"><metadata
     id="metadata15"><rdf:RDF><cc:Work
         rdf:about=""><dc:format>image/svg+xml</dc:format><dc:type
           rdf:resource="http://purl.org/dc/dcmitype/StillImage" /></cc:Work></rdf:RDF></metadata><defs
     id="defs13" /><sodipodi:namedview
     pagecolor="#ffffff"
     bordercolor="#666666"
     borderopacity="1"
     objecttolerance="10"
     gridtolerance="10"
     guidetolerance="10"
     inkscape:pageopacity="0"
     inkscape:pageshadow="2"
     inkscape:window-width="1366"
     inkscape:window-height="720"
     id="namedview11"
     showgrid="false"
     inkscape:zoom="3.9120364"
     inkscape:cx="120.33981"
     inkscape:cy="21.131326"
     inkscape:window-x="0"
     inkscape:window-y="0"
     inkscape:window-maximized="1"
     inkscape:current-layer="Layer_1" /><text
     font-size="36.8011"
     id="text3"
     x="23.056887"
     y="46.755501"
     style="font-size:36.80110168000000215px;fill:#cccccc;font-family:HelveticaNeue">Viral</text>
<g
     transform="translate(0,-796.36218)"
     id="g5"
     style="fill:#cccccc"><path
       d="M117.636,823.773c-1.01,0.008-1.991,0.215-2.923,0.594c-2.13,0.866-3.995,2.629-5.382,4.994   c-1.39,2.37-1.942,4.948-1.66,7.225s1.404,4.259,3.357,5.382c0.366,0.21,0.637,0.406,1.02,0.533   c0.005,0.003,0.01,0.005,0.015,0.008c3.261,2.057,8.19,0.723,11.275-4.72c1.366-2.41,1.882-5.148,1.652-7.529   c-0.23-2.381-1.207-4.427-2.878-5.382c-0.018-0.01-0.035-0.021-0.053-0.03c-0.01-0.005-0.021-0.01-0.03-0.015   c-0.142-0.077-0.287-0.144-0.434-0.205c-0.04-0.017-0.081-0.037-0.122-0.053c-0.032-0.012-0.067-0.019-0.099-0.03   c-1.085-0.435-2.349-0.715-3.304-0.761C117.924,823.773,117.78,823.772,117.636,823.773L117.636,823.773z M117.636,824.26   c0.135-0.001,0.275,0.001,0.411,0.008l0.244,0.122c-0.162,0.035-0.332,0.075-0.495,0.122l-0.51-0.236   C117.402,824.269,117.518,824.261,117.636,824.26L117.636,824.26z M116.798,824.321l0.647,0.297   c-0.247,0.084-0.492,0.179-0.738,0.289l-0.502-0.274c-0.023-0.013-0.05-0.019-0.076-0.015c-0.067,0.01-0.112,0.072-0.102,0.139   c0.006,0.038,0.03,0.072,0.064,0.09l0.343,0.19c-0.01,0.005-0.02,0.01-0.03,0.015c-0.15,0.074-0.3,0.153-0.449,0.236l-0.716-0.426   c-0.027-0.017-0.06-0.022-0.091-0.015c-0.067,0.01-0.112,0.072-0.102,0.139c0.006,0.038,0.03,0.072,0.064,0.09l0.594,0.358   c-0.141,0.084-0.279,0.174-0.419,0.266l-1.013-0.594c0.205-0.104,0.414-0.204,0.624-0.289   C115.513,824.565,116.145,824.402,116.798,824.321L116.798,824.321z M119.729,824.724c0.77,0.015,1.496,0.206,2.147,0.579   c1.479,0.845,2.407,2.726,2.626,5.002c0.22,2.276-0.278,4.922-1.591,7.24c-2.992,5.281-7.596,6.441-10.589,4.552   c-1.454-0.917-2.322-2.656-2.489-4.766c-0.168-2.109,0.368-4.575,1.713-6.882c1.346-2.309,3.193-4.033,5.07-4.956   c0.939-0.462,1.886-0.722,2.779-0.761C119.506,824.727,119.619,824.722,119.729,824.724L119.729,824.724z M114.02,825.242   l1.043,0.609c-0.551,0.383-1.087,0.828-1.599,1.332l-1.241-0.662c0.142-0.128,0.288-0.248,0.434-0.365l0.662,0.381   c0.059,0.034,0.134,0.013,0.167-0.046c0.034-0.059,0.013-0.134-0.046-0.167l-0.579-0.335c0.138-0.105,0.285-0.2,0.426-0.297   l0.799,0.495c0.059,0.036,0.136,0.017,0.171-0.042c0.036-0.059,0.017-0.136-0.042-0.171l-0.7-0.434   C113.683,825.433,113.85,825.335,114.02,825.242L114.02,825.242z M112.033,826.696l1.249,0.67c-0.099,0.102-0.2,0.206-0.297,0.312   l-1.302-0.632C111.799,826.927,111.913,826.809,112.033,826.696z M111.508,827.221l1.309,0.647   c-0.098,0.111-0.201,0.219-0.297,0.335l-1.325-0.624C111.299,827.459,111.401,827.336,111.508,827.221z M111.035,827.762   l1.332,0.632c-0.1,0.124-0.193,0.252-0.289,0.381l-1.332-0.647C110.842,828.003,110.937,827.881,111.035,827.762L111.035,827.762z    M110.594,828.318l1.34,0.647c-0.09,0.125-0.179,0.252-0.266,0.381l-1.073-0.495c-0.025-0.015-0.055-0.02-0.084-0.015   c-0.066,0.012-0.11,0.075-0.098,0.141c0.008,0.045,0.04,0.081,0.083,0.095l1.035,0.479c-0.139,0.212-0.273,0.432-0.404,0.655   c-0.074,0.126-0.144,0.253-0.213,0.381l-1.317-0.708c0.05-0.091,0.099-0.184,0.152-0.274c0.021-0.036,0.04-0.071,0.061-0.107   l1.043,0.54c0.055,0.039,0.131,0.026,0.17-0.029c0.039-0.055,0.026-0.131-0.029-0.17c-0.008-0.006-0.017-0.01-0.026-0.014   l-1.028-0.533C110.149,828.954,110.365,828.626,110.594,828.318L110.594,828.318z M119.059,828.957l-0.624,0.137v0.929   c-0.268,0.088-0.534,0.217-0.799,0.388c-0.347,0.225-0.671,0.536-0.959,0.921c-0.284,0.38-0.512,0.84-0.693,1.385   c-0.175,0.539-0.266,1.163-0.266,1.873c0,0.681,0.082,1.25,0.244,1.698c0.161,0.438,0.376,0.766,0.647,0.99   c0.269,0.222,0.582,0.349,0.936,0.381c0.281,0.019,0.582-0.021,0.891-0.107v0.929l0.624-0.228v-0.929   c0.174-0.077,0.342-0.159,0.502-0.251c0.276-0.159,0.5-0.346,0.678-0.563l-0.175-0.594c-0.136,0.141-0.314,0.272-0.518,0.404   c-0.143,0.093-0.305,0.169-0.487,0.244v-5.915c0.384-0.069,0.696-0.074,0.921-0.008l0.167-0.784   c-0.16-0.036-0.351-0.052-0.579-0.038c-0.141,0.004-0.317,0.034-0.51,0.069L119.059,828.957L119.059,828.957z M109.482,830.084   l1.317,0.716c-0.068,0.131-0.127,0.264-0.19,0.396l-1.325-0.723C109.348,830.342,109.414,830.213,109.482,830.084L109.482,830.084z    M109.178,830.693l1.325,0.723c-0.064,0.14-0.131,0.279-0.19,0.419l-1.066-0.548c-0.025-0.015-0.055-0.02-0.084-0.015   c-0.066,0.013-0.109,0.078-0.095,0.143c0.007,0.037,0.031,0.068,0.065,0.085l1.089,0.556c-0.06,0.15-0.114,0.299-0.167,0.449   l-1.317-0.731C108.865,831.411,109.011,831.052,109.178,830.693L109.178,830.693z M118.435,830.815v5.938   c-0.161,0.024-0.315,0.034-0.464,0.015c-0.267-0.036-0.502-0.149-0.708-0.335c-0.201-0.189-0.362-0.46-0.48-0.807   c-0.118-0.348-0.183-0.779-0.183-1.294c0-0.572,0.066-1.073,0.19-1.5c0.124-0.426,0.286-0.788,0.487-1.081   c0.206-0.293,0.439-0.523,0.693-0.693C118.126,830.955,118.279,830.878,118.435,830.815L118.435,830.815z M108.66,832.01   l1.317,0.731c-0.042,0.124-0.084,0.249-0.122,0.373l-0.807-0.426c-0.025-0.015-0.055-0.02-0.084-0.015   c-0.066,0.013-0.109,0.078-0.095,0.143c0.007,0.037,0.031,0.068,0.065,0.085l0.845,0.442c-0.043,0.152-0.077,0.305-0.114,0.457   l-0.525-0.274c-0.025-0.015-0.055-0.02-0.084-0.015c-0.066,0.013-0.109,0.078-0.095,0.143c0.007,0.037,0.031,0.068,0.065,0.085   l0.579,0.312c-0.038,0.17-0.075,0.341-0.107,0.51l-0.312-0.152c-0.025-0.015-0.055-0.02-0.084-0.015   c-0.065,0.016-0.105,0.082-0.089,0.147c0.009,0.036,0.033,0.065,0.066,0.081l0.381,0.183c-0.019,0.112-0.039,0.224-0.053,0.335   l-0.213-0.099c-0.026-0.012-0.056-0.015-0.084-0.008c-0.066,0.012-0.11,0.075-0.098,0.141c0.008,0.045,0.04,0.081,0.083,0.095   l0.282,0.13c-0.02,0.186-0.035,0.372-0.046,0.556l-0.259-0.114c-0.023-0.013-0.05-0.019-0.076-0.015   c-0.067,0.009-0.113,0.07-0.104,0.137c0.006,0.046,0.038,0.084,0.081,0.099l0.35,0.16c-0.005,0.166-0.01,0.331-0.008,0.495   l-0.624-0.274c-0.022-0.009-0.045-0.012-0.069-0.008c-0.067,0.006-0.117,0.065-0.111,0.132c0.004,0.047,0.035,0.088,0.08,0.104   l0.731,0.32c0.005,0.128,0.013,0.254,0.023,0.381c0.001,0.016,0.006,0.03,0.008,0.046l-0.83-0.366   c-0.022-0.009-0.045-0.012-0.069-0.008c-0.067,0.006-0.117,0.065-0.111,0.132c0.004,0.047,0.035,0.088,0.08,0.104l0.959,0.419   c0.023,0.204,0.047,0.404,0.084,0.601l-0.799-0.388c-0.025-0.015-0.055-0.02-0.084-0.015c-0.052,0.014-0.09,0.06-0.091,0.114   c-0.153-0.474-0.279-0.968-0.343-1.485c-0.036-0.292-0.061-0.589-0.069-0.891l0.152,0.076c0.061,0.031,0.136,0.008,0.167-0.053   c0.031-0.061,0.008-0.136-0.053-0.167l0,0l-0.266-0.137C108.089,834.272,108.285,833.139,108.66,832.01L108.66,832.01z    M108.516,838.092c0.013,0.014,0.028,0.024,0.046,0.03l0.959,0.472c0.047,0.213,0.113,0.421,0.175,0.624l-0.959-0.518   C108.649,838.505,108.584,838.3,108.516,838.092z M108.911,839.075l0.891,0.487c0.068,0.188,0.147,0.37,0.228,0.548l-0.738-0.411   C109.158,839.499,109.024,839.291,108.911,839.075z M109.642,840.171l0.586,0.327c0.116,0.214,0.243,0.415,0.381,0.609   C110.247,840.829,109.927,840.517,109.642,840.171z"
       id="path7"
       style="fill:#cccccc" /></g><text
     transform="matrix(1 0 0 1 126.7317 46.7555)"
     fill="#231F20"
     font-family="'HelveticaNeue'"
     font-size="36.8011"
     id="text9"
     style="fill:#cccccc">ent</text>
</svg>